<?xml version="1.0" standalone="no"?>
<!DOCTYPE svg PUBLIC "-//W3C//DTD SVG 20010904//EN"
 "http://www.w3.org/TR/2001/REC-SVG-20010904/DTD/svg10.dtd">
<svg version="1.0" xmlns="http://www.w3.org/2000/svg"
 width="92.000000pt" height="92.000000pt" viewBox="0 0 92.000000 92.000000"
 preserveAspectRatio="xMidYMid meet">

<g transform="translate(0.000000,92.000000) scale(0.100000,-0.100000)"
fill="#000000" stroke="none">
<path d="M406 759 c-62 -10 -132 -53 -171 -105 -22 -30 -42 -44 -73 -52 -64
-18 -135 -93 -151 -159 -32 -133 44 -256 175 -283 35 -7 151 -10 322 -8 304 3
320 7 377 87 26 36 30 52 30 105 0 51 -5 70 -28 104 -27 41 -89 82 -124 82
-13 0 -24 15 -35 48 -46 129 -178 203 -322 181z"/>
</g>
</svg>
